<svg width="460" height="460" viewBox="0 0 460 460" fill="none" xmlns="http://www.w3.org/2000/svg">
<circle cx="230" cy="230" r="230" fill="#2173FB"/>
<path d="M237.592 368C213.755 368 192.531 363.993 173.918 355.979C155.306 347.965 140.612 337.066 129.837 323.282C119.061 309.178 113.02 293.47 111.714 276.16H194.49C195.469 285.456 199.878 292.99 207.714 298.76C215.551 304.53 225.184 307.415 236.612 307.415C247.061 307.415 255.061 305.491 260.612 301.645C266.49 297.477 269.429 292.188 269.429 285.777C269.429 278.084 265.347 272.474 257.184 268.948C249.02 265.101 235.796 260.934 217.51 256.446C197.918 251.958 181.592 247.31 168.531 242.502C155.469 237.373 144.204 229.519 134.735 218.941C125.265 208.042 120.531 193.456 120.531 175.185C120.531 159.798 124.776 145.854 133.265 133.352C142.082 120.53 154.816 110.432 171.469 103.059C188.449 95.6864 208.531 92 231.714 92C266 92 292.939 100.335 312.531 117.004C332.449 133.672 343.878 155.791 346.816 183.359H269.429C268.123 174.063 263.878 166.69 256.694 161.24C249.837 155.791 240.694 153.066 229.265 153.066C219.469 153.066 211.959 154.99 206.735 158.836C201.51 162.362 198.898 167.331 198.898 173.742C198.898 181.436 202.98 187.206 211.143 191.052C219.633 194.899 232.694 198.746 250.327 202.592C270.571 207.721 287.061 212.85 299.796 217.979C312.531 222.787 323.633 230.801 333.102 242.021C342.898 252.92 347.959 267.666 348.286 286.258C348.286 301.965 343.714 316.07 334.571 328.571C325.755 340.753 312.857 350.369 295.878 357.422C279.225 364.474 259.796 368 237.592 368Z" fill="white"/>
</svg>
