<svg width="152" height="24" viewBox="0 0 152 24" fill="none" xmlns="http://www.w3.org/2000/svg">
<path d="M7.34509 16.3805C5.95419 16.3805 4.71572 16.1427 3.62967 15.6671C2.54363 15.1914 1.68623 14.5446 1.05746 13.7265C0.428702 12.8894 0.0762137 11.9572 0 10.9298H4.83004C4.8872 11.4816 5.14442 11.9287 5.6017 12.2711C6.05899 12.6136 6.62106 12.7848 7.28793 12.7848C7.89764 12.7848 8.36445 12.6706 8.68836 12.4423C9.03132 12.195 9.2028 11.8811 9.2028 11.5006C9.2028 11.044 8.96463 10.7111 8.4883 10.5018C8.01196 10.2735 7.2403 10.0262 6.17331 9.75981C5.0301 9.49346 4.07743 9.2176 3.31529 8.93222C2.55316 8.62782 1.89581 8.16171 1.34327 7.53389C0.790717 6.88704 0.514442 6.0214 0.514442 4.93698C0.514442 4.02378 0.762137 3.1962 1.25753 2.45422C1.77197 1.69322 2.51505 1.09394 3.48677 0.656361C4.47755 0.218787 5.64934 0 7.00213 0C9.00274 0 10.5746 0.49465 11.7178 1.48395C12.8801 2.47325 13.547 3.78597 13.7185 5.42212H9.2028C9.12658 4.87039 8.87889 4.43282 8.45972 4.10939C8.05959 3.78597 7.5261 3.62426 6.85923 3.62426C6.28763 3.62426 5.8494 3.73841 5.54454 3.96671C5.23969 4.17598 5.08726 4.47087 5.08726 4.85137C5.08726 5.30797 5.32543 5.65042 5.80176 5.87872C6.29715 6.10702 7.05929 6.33532 8.08817 6.56361C9.26948 6.86801 10.2317 7.17241 10.9748 7.47681C11.7178 7.76219 12.3657 8.23781 12.9182 8.90369C13.4898 9.55054 13.7851 10.4257 13.8042 11.5291C13.8042 12.4614 13.5374 13.2985 13.004 14.0404C12.4895 14.7634 11.7369 15.3341 10.7461 15.7527C9.7744 16.1712 8.64072 16.3805 7.34509 16.3805Z" fill="#2173FB"/>
<path d="M37.1432 0.0570759C39.1248 0.0570759 40.6967 0.656362 41.8589 1.85493C43.0402 3.05351 43.6309 4.71819 43.6309 6.84899V16.1522H38.7723V7.50535C38.7723 6.478 38.496 5.68847 37.9435 5.13674C37.41 4.56599 36.6669 4.28062 35.7142 4.28062C34.7615 4.28062 34.0089 4.56599 33.4564 5.13674C32.9229 5.68847 32.6561 6.478 32.6561 7.50535V16.1522H27.7975V7.50535C27.7975 6.478 27.5212 5.68847 26.9687 5.13674C26.4352 4.56599 25.6921 4.28062 24.7394 4.28062C23.7868 4.28062 23.0342 4.56599 22.4816 5.13674C21.9481 5.68847 21.6814 6.478 21.6814 7.50535V16.1522H16.7942V0.2283H21.6814V2.22592C22.1768 1.56005 22.8246 1.03686 23.6248 0.656361C24.4251 0.256838 25.3301 0.0570759 26.3399 0.0570759C27.5403 0.0570759 28.6073 0.313913 29.5409 0.827587C30.4936 1.34126 31.2367 2.07372 31.7702 3.02497C32.3227 2.14982 33.0753 1.43639 34.028 0.884662C34.9806 0.332938 36.0191 0.0570759 37.1432 0.0570759Z" fill="#2173FB"/>
<path d="M46.0772 8.16171C46.0772 6.52557 46.382 5.08918 46.9917 3.85256C47.6205 2.61593 48.4684 1.66469 49.5354 0.998812C50.6024 0.332937 51.7932 0 53.1079 0C54.232 0 55.2133 0.2283 56.0516 0.684899C56.909 1.1415 57.5664 1.74079 58.0237 2.48276V0.2283H62.9109V16.1522H58.0237V13.8977C57.5473 14.6397 56.8805 15.239 56.0231 15.6956C55.1847 16.1522 54.2035 16.3805 53.0793 16.3805C51.7837 16.3805 50.6024 16.0476 49.5354 15.3817C48.4684 14.6968 47.6205 13.736 46.9917 12.4994C46.382 11.2438 46.0772 9.79786 46.0772 8.16171ZM58.0237 8.19025C58.0237 6.97265 57.6807 6.01189 56.9948 5.30797C56.3279 4.60404 55.5086 4.25208 54.5369 4.25208C53.5652 4.25208 52.7363 4.60404 52.0504 5.30797C51.3836 5.99287 51.0501 6.94411 51.0501 8.16171C51.0501 9.37931 51.3836 10.3496 52.0504 11.0725C52.7363 11.7765 53.5652 12.1284 54.5369 12.1284C55.5086 12.1284 56.3279 11.7765 56.9948 11.0725C57.6807 10.3686 58.0237 9.40785 58.0237 8.19025Z" fill="#2173FB"/>
<path d="M76.1638 0.0570759C78.031 0.0570759 79.5172 0.665875 80.6223 1.88347C81.7464 3.08205 82.3085 4.73722 82.3085 6.84899V16.1522H77.4499V7.50535C77.4499 6.43995 77.1736 5.61237 76.6211 5.02259C76.0685 4.43282 75.3254 4.13793 74.3918 4.13793C73.4582 4.13793 72.7151 4.43282 72.1626 5.02259C71.61 5.61237 71.3337 6.43995 71.3337 7.50535V16.1522H66.4465V0.2283H71.3337V2.34007C71.8291 1.63615 72.496 1.08442 73.3343 0.684899C74.1727 0.26635 75.1158 0.0570759 76.1638 0.0570759Z" fill="#2173FB"/>
<path d="M84.7329 8.16171C84.7329 6.52557 85.0378 5.08918 85.6475 3.85256C86.2762 2.61593 87.1241 1.66469 88.1911 0.998812C89.2581 0.332937 90.4489 0 91.7636 0C92.8878 0 93.869 0.2283 94.7074 0.684899C95.5648 1.1415 96.2221 1.74079 96.6794 2.48276V0.2283H101.567V16.1522H96.6794V13.8977C96.2031 14.6397 95.5362 15.239 94.6788 15.6956C93.8404 16.1522 92.8592 16.3805 91.735 16.3805C90.4394 16.3805 89.2581 16.0476 88.1911 15.3817C87.1241 14.6968 86.2762 13.736 85.6475 12.4994C85.0378 11.2438 84.7329 9.79786 84.7329 8.16171ZM96.6794 8.19025C96.6794 6.97265 96.3364 6.01189 95.6505 5.30797C94.9836 4.60404 94.1643 4.25208 93.1926 4.25208C92.2209 4.25208 91.3921 4.60404 90.7061 5.30797C90.0393 5.99287 89.7058 6.94411 89.7058 8.16171C89.7058 9.37931 90.0393 10.3496 90.7061 11.0725C91.3921 11.7765 92.2209 12.1284 93.1926 12.1284C94.1643 12.1284 94.9836 11.7765 95.6505 11.0725C96.3364 10.3686 96.6794 9.40785 96.6794 8.19025Z" fill="#2173FB"/>
<path d="M111.161 0C112.285 0 113.267 0.2283 114.105 0.684899C114.962 1.1415 115.62 1.74079 116.077 2.48276V0.2283H120.964V16.1237C120.964 17.5886 120.669 18.9108 120.078 20.0904C119.507 21.2889 118.621 22.2402 117.42 22.9441C116.239 23.648 114.762 24 112.99 24C110.628 24 108.713 23.4388 107.246 22.3163C105.779 21.2128 104.94 19.7099 104.731 17.8074H109.561C109.713 18.4162 110.075 18.8918 110.647 19.2342C111.218 19.5957 111.923 19.7765 112.762 19.7765C113.772 19.7765 114.572 19.4816 115.162 18.8918C115.772 18.321 116.077 17.3983 116.077 16.1237V13.8692C115.601 14.6112 114.943 15.22 114.105 15.6956C113.267 16.1522 112.285 16.3805 111.161 16.3805C109.847 16.3805 108.656 16.0476 107.589 15.3817C106.522 14.6968 105.674 13.736 105.045 12.4994C104.435 11.2438 104.131 9.79786 104.131 8.16171C104.131 6.52557 104.435 5.08918 105.045 3.85256C105.674 2.61593 106.522 1.66469 107.589 0.998812C108.656 0.332937 109.847 0 111.161 0ZM116.077 8.19025C116.077 6.97265 115.734 6.01189 115.048 5.30797C114.381 4.60404 113.562 4.25208 112.59 4.25208C111.619 4.25208 110.79 4.60404 110.104 5.30797C109.437 5.99287 109.103 6.94411 109.103 8.16171C109.103 9.37931 109.437 10.3496 110.104 11.0725C110.79 11.7765 111.619 12.1284 112.59 12.1284C113.562 12.1284 114.381 11.7765 115.048 11.0725C115.734 10.3686 116.077 9.40785 116.077 8.19025Z" fill="#2173FB"/>
<path d="M139.533 7.93341C139.533 8.39001 139.504 8.86564 139.447 9.36029H128.387C128.463 10.3496 128.777 11.1106 129.33 11.6433C129.902 12.157 130.597 12.4138 131.416 12.4138C132.636 12.4138 133.484 11.9001 133.96 10.8728H139.162C138.895 11.9191 138.409 12.8609 137.704 13.698C137.018 14.5351 136.151 15.1914 135.103 15.6671C134.055 16.1427 132.883 16.3805 131.588 16.3805C130.025 16.3805 128.634 16.0476 127.415 15.3817C126.196 14.7158 125.243 13.7646 124.557 12.5279C123.871 11.2913 123.528 9.84542 123.528 8.19025C123.528 6.53508 123.862 5.08918 124.528 3.85256C125.214 2.61593 126.167 1.66469 127.387 0.998812C128.606 0.332937 130.006 0 131.588 0C133.131 0 134.503 0.323425 135.703 0.970275C136.904 1.61712 137.837 2.53983 138.504 3.73841C139.19 4.93698 139.533 6.33532 139.533 7.93341ZM134.532 6.64923C134.532 5.81213 134.246 5.14625 133.674 4.65161C133.103 4.15696 132.388 3.90963 131.531 3.90963C130.711 3.90963 130.016 4.14744 129.444 4.62307C128.892 5.09869 128.549 5.77408 128.415 6.64923H134.532Z" fill="#2173FB"/>
<path d="M146.998 2.88228C147.57 2.00713 148.285 1.32224 149.142 0.827587C149.999 0.313913 150.952 0.0570759 152 0.0570759V5.22235H150.657C149.437 5.22235 148.523 5.4887 147.913 6.0214C147.303 6.53508 146.998 7.44828 146.998 8.761V16.1522H142.111V0.2283H146.998V2.88228Z" fill="#2173FB"/>
</svg>
